<svg xmlns="http://www.w3.org/2000/svg" viewBox="0 0 20.995 18.005"><g data-name="Shape 1685 copy 2" fill="none" opacity=".502"><path d="M1.155.002h18.656a1.131 1.131 0 0 1 1.005 1.736c-.406.692-8.608 14.513-9.309 15.693a1.174 1.174 0 0 1-2.021 0C8.972 16.582.728 2.707.155 1.703a1.124 1.124 0 0 1 1-1.701z"/><path d="M4.403 3c1.727 2.916 4.4 7.418 6.09 10.26 1.704-2.87 4.37-7.363 6.087-10.26H4.403M1.155 0h18.656c.867 0 1.513.872 1.005 1.736-.406.692-8.608 14.513-9.309 15.693a1.16 1.16 0 0 1-1.005.576 1.18 1.18 0 0 1-1.016-.576C8.972 16.579.728 2.705.156 1.7-.264.965.2 0 1.155 0z" fill="#ed41df"/></g></svg>