<svg xmlns="http://www.w3.org/2000/svg" viewBox="0 0 22.977 22.977"><g data-name="Rounded Rectangle 1 copy 3" fill="none" opacity=".502"><path d="M10.449.375l10.2 4.738a4.018 4.018 0 0 1 1.952 5.336l-4.738 10.2a4.016 4.016 0 0 1-5.336 1.952l-10.2-4.738a4.017 4.017 0 0 1-1.951-5.337l4.738-10.2A4.018 4.018 0 0 1 10.449.375z"/><path d="M8.76 3c-.301 0-.724.154-.926.59l-4.738 10.2a1.016 1.016 0 0 0 .494 1.353l10.204 4.739c.136.063.28.095.425.095.3 0 .723-.154.925-.59l4.738-10.202c.154-.332.087-.63.033-.778a1.013 1.013 0 0 0-.527-.573L9.186 3.096A1.007 1.007 0 0 0 8.759 3m0-3c.567 0 1.142.12 1.69.375L20.65 5.113a4.018 4.018 0 0 1 1.952 5.336L17.865 20.65a4.018 4.018 0 0 1-5.336 1.952L2.327 17.864a4.017 4.017 0 0 1-1.952-5.336L5.113 2.326A4.018 4.018 0 0 1 8.76 0z" fill="#ed41df"/></g></svg>